<?xml version="1.0" standalone="no"?>
<!DOCTYPE svg PUBLIC "-//W3C//DTD SVG 20010904//EN"
 "http://www.w3.org/TR/2001/REC-SVG-20010904/DTD/svg10.dtd">
<svg version="1.0" xmlns="http://www.w3.org/2000/svg"
 width="512.000000pt" height="512.000000pt" viewBox="0 0 512.000000 512.000000"
 preserveAspectRatio="xMidYMid meet">
<metadata>
Created by potrace 1.11, written by Peter Selinger 2001-2013
</metadata>
<g transform="translate(0.000000,512.000000) scale(0.100000,-0.100000)"
fill="#000000" stroke="none">
<path d="M404 5105 c-191 -41 -349 -201 -390 -394 -21 -99 -21 -4203 0 -4302
42 -195 200 -353 395 -395 99 -21 4203 -21 4302 0 195 42 353 200 395 395 21
99 21 4203 0 4302 -42 195 -200 353 -395 395 -95 20 -4214 19 -4307 -1z m3366
-1161 c108 -19 249 -66 319 -106 75 -43 182 -147 231 -224 22 -35 52 -98 67
-141 24 -69 27 -93 28 -208 0 -71 -3 -146 -8 -166 -9 -42 -5 -41 -202 -60
-127 -12 -265 -7 -355 14 l-55 12 3 41 c12 167 -221 291 -395 210 -73 -35
-107 -94 -108 -190 0 -145 83 -214 290 -241 166 -21 362 -112 498 -233 338
-297 406 -685 196 -1117 -25 -52 -57 -94 -124 -161 -77 -79 -103 -98 -185
-137 -152 -73 -196 -82 -410 -82 -202 1 -264 12 -431 76 -329 127 -539 399
-539 700 0 53 2 59 23 64 32 7 206 10 412 8 l180 -3 13 -52 c15 -66 44 -108
101 -146 120 -79 269 -75 366 10 54 47 70 96 62 185 -11 114 -67 192 -178 249
-80 40 -121 52 -299 89 -221 46 -285 77 -400 195 -165 168 -230 331 -230 573
0 215 64 385 210 563 103 125 267 230 420 269 129 34 338 37 500 9z m-1387
-586 c4 -332 2 -864 -3 -1183 -5 -319 -9 -677 -10 -795 l0 -215 -262 3 c-145
2 -265 6 -268 9 -3 2 -6 82 -8 176 -11 740 -28 1207 -48 1327 l-6 35 -18 -35
c-10 -19 -50 -123 -90 -230 -84 -229 -119 -304 -142 -308 -34 -6 -113 162
-204 429 l-39 114 -8 -95 c-14 -152 -11 -878 6 -1155 8 -137 13 -252 11 -253
-18 -21 -550 -29 -571 -9 -10 11 -16 2333 -6 2566 l8 175 30 9 c17 5 138 9
269 8 200 0 242 -3 256 -16 26 -24 83 -153 150 -338 61 -172 96 -247 117 -254
18 -6 36 37 97 240 59 197 106 323 134 357 15 18 36 20 227 28 116 5 246 10
291 10 l81 2 6 -602z"/>
</g>
</svg>
